<?xml version="1.0" encoding="UTF-8"?>
<svg xmlns="http://www.w3.org/2000/svg" xmlns:xlink="http://www.w3.org/1999/xlink" width="2836" height="2835" viewBox="0 0 2836 2835">

<path fill-rule="evenodd" fill="rgb(91.992188%, 98.046875%, 97.068787%)" fill-opacity="1" d="M 1366.460938 1212.210938 C 1378.289062 1229.671875 1368.328125 1216.648438 1395.238281 1227.179688 C 1426.75 1239.511719 1428.128906 1264.550781 1453.648438 1279.480469 C 1489.019531 1300.179688 1540.46875 1310.058594 1576.089844 1295.03125 C 1593.058594 1294.480469 1591.941406 1297.261719 1598.191406 1285.648438 C 1589.898438 1272.601562 1582.839844 1278.429688 1565.578125 1277.660156 C 1552.679688 1277.078125 1542.789062 1273.871094 1532.941406 1270.671875 L 1495.480469 1255.660156 L 1466.5 1228.410156 C 1454.941406 1198.101562 1405.519531 1208.199219 1377.050781 1196.5 C 1333.289062 1178.511719 1356.808594 1148.140625 1352.109375 1107.261719 C 1335.929688 1097.25 1317.820312 1099.109375 1307.351562 1085.671875 C 1319.191406 1044.039062 1385.308594 1084.589844 1410.921875 1082.210938 C 1417.269531 1056.421875 1408.839844 1038.519531 1442.230469 1042.160156 C 1461.941406 1079.578125 1421.691406 1121.789062 1536.828125 1130.800781 C 1579.230469 1134.121094 1579.710938 1136.730469 1588.449219 1122.398438 C 1575.660156 1107.730469 1558.441406 1116.921875 1522.929688 1112.171875 C 1500.738281 1109.199219 1483.539062 1100.730469 1468.800781 1092.171875 C 1465.800781 1064.101562 1470.070312 1034.308594 1445.511719 1025.570312 C 1414.070312 1014.390625 1401.851562 1035.050781 1396.558594 1060.070312 C 1366.609375 1059.378906 1331.320312 1037.839844 1302.269531 1059.050781 C 1293.550781 1065.410156 1282.710938 1080.910156 1292.140625 1097.660156 C 1299.570312 1110.851562 1320.171875 1112.800781 1332.410156 1115.828125 C 1333.429688 1129.949219 1319.820312 1195.328125 1366.460938 1212.210938 Z M 1251.878906 999.960938 C 1242.871094 985.761719 1244.789062 995.851562 1233.371094 984.96875 C 1222.050781 974.179688 1231.179688 973.269531 1214.578125 973.21875 C 1206.21875 992.328125 1223.460938 990.261719 1214.160156 1003.679688 C 1209.78125 1009.988281 1194.410156 1015.808594 1181.910156 1016.160156 C 1136.238281 1017.410156 1149.789062 985.328125 1123.050781 989.878906 C 1120.371094 1025.351562 1180.179688 1050.351562 1222.191406 1019.871094 C 1257.078125 994.570312 1241.328125 1018.238281 1251.878906 999.960938 Z M 2052.21875 1889.347656 C 1950.089844 1882.808594 1903.339844 1775.378906 1818.808594 1779.890625 C 1767.058594 1782.648438 1747.960938 1828.941406 1744.699219 1877.242188 C 1740.089844 1945.296875 1758.828125 1961.394531 1737.949219 2033.683594 L 1718.671875 2029.320312 C 1684.679688 2018.359375 1654.03125 1956.835938 1631.710938 1917.15625 C 1620.449219 1897.121094 1607.410156 1873.976562 1592.699219 1858.394531 C 1565 1829.058594 1551.128906 1841.21875 1524.449219 1855.363281 C 1484.308594 1877.578125 1482.300781 1883.109375 1465.71875 1928.757812 C 1455.410156 1957.144531 1430 2000.203125 1402.960938 1995.839844 C 1376.96875 1983.324219 1348.140625 1896.617188 1329.769531 1859.78125 C 1317.070312 1834.300781 1303.5 1813.378906 1282.050781 1802.128906 C 1250.238281 1785.449219 1218.878906 1798.261719 1201.941406 1816.28125 C 1155.011719 1830.820312 1163.199219 1909.894531 1148.589844 1958.226562 C 1143.371094 1975.511719 1148.191406 1971.859375 1135.03125 1975.144531 C 1030.46875 1857.824219 1012.988281 1651.710938 993.640625 1498.609375 L 975.25 1312.078125 L 968.921875 985.378906 L 990.085938 987.21875 C 1163.371094 1017.171875 1155.53125 850.171875 1181.339844 835.511719 C 1239.96875 802.230469 1177.328125 978.960938 1343.878906 1009.71875 C 1473.449219 1033.648438 1566.210938 982.351562 1574.410156 832.628906 C 1587.378906 824.671875 1615.929688 832.300781 1610.898438 771.410156 C 1608.199219 738.808594 1591.109375 733.191406 1563.140625 724.921875 C 1433.609375 686.648438 1335.769531 708.429688 1221.308594 723.828125 C 1174.089844 730.191406 1105.359375 710.441406 1052.339844 707.539062 C 1052.300781 685.238281 1111.28125 629.320312 1124.628906 616.238281 C 1148.859375 592.488281 1189.289062 564 1222.148438 546.421875 C 1303.679688 502.800781 1389.769531 478.371094 1500.320312 486.511719 C 1696.71875 500.96875 1832.078125 621.128906 1894.230469 764.800781 C 1968.519531 936.480469 1965.011719 1151.039062 1983.441406 1350.5 C 1994.140625 1466.359375 2008.929688 1525.46875 2041.96875 1626.160156 C 2062.371094 1688.328125 2123.21875 1850.808594 2052.21875 1889.347656 "/>
<path fill-rule="evenodd" fill="rgb(20.996094%, 20.996094%, 20.996094%)" fill-opacity="1" d="M 1667.699219 2169.257812 C 1774.578125 2177.058594 1867.890625 2181.234375 1969.261719 2204.585938 C 2097.859375 2234.210938 2146.199219 2283 1986.851562 2323.5625 C 1765.25 2379.972656 1288.449219 2384.34375 1057.058594 2328.691406 C 926.691406 2297.332031 872.253906 2252.988281 1036.488281 2208.839844 C 1196.261719 2165.886719 1487.339844 2156.09375 1667.699219 2169.257812 "/>
<path fill-rule="evenodd" fill="rgb(4.998779%, 4.998779%, 4.998779%)" fill-opacity="1" d="M 963.355469 1359.078125 C 968.066406 1335.730469 959.332031 1337.691406 960.753906 1312.230469 L 975.25 1312.078125 L 993.640625 1498.609375 C 1012.988281 1651.710938 1030.46875 1857.824219 1135.03125 1975.144531 C 1135.828125 1975.941406 1136.941406 1976.933594 1137.53125 1977.449219 L 1152.25 1988.875 C 1167.410156 1998.554688 1195.328125 2011.394531 1207.710938 1997.035156 C 1230.328125 1970.785156 1180.320312 1900.875 1201.941406 1816.28125 C 1218.878906 1798.261719 1250.238281 1785.449219 1282.050781 1802.128906 C 1303.5 1813.378906 1317.070312 1834.300781 1329.769531 1859.78125 C 1348.140625 1896.617188 1376.96875 1983.324219 1402.960938 1995.839844 C 1422.289062 2026.664062 1501.488281 2049.855469 1507.488281 1995.0625 C 1509.960938 1972.445312 1505.078125 1943.210938 1505.609375 1918.152344 C 1506.398438 1881.078125 1513.980469 1878.378906 1524.449219 1855.363281 C 1551.128906 1841.21875 1565 1829.058594 1592.699219 1858.394531 C 1607.410156 1873.976562 1620.449219 1897.121094 1631.710938 1917.15625 C 1654.03125 1956.835938 1684.679688 2018.359375 1718.671875 2029.320312 C 1733.28125 2050.378906 1774.210938 2033.015625 1783.929688 2014.011719 C 1794.511719 1993.320312 1784.671875 1960.433594 1779.828125 1941.066406 C 1765.769531 1884.847656 1746.800781 1828.539062 1800.011719 1806.378906 C 1862.878906 1780.199219 1933.710938 1858.421875 1981.671875 1885.835938 C 1989.609375 1890.371094 2003.460938 1897.398438 2014.699219 1899.152344 C 2033.640625 1902.113281 2042.199219 1899.6875 2052.21875 1889.347656 C 2123.21875 1850.808594 2062.371094 1688.328125 2041.96875 1626.160156 C 2008.929688 1525.46875 1994.140625 1466.359375 1983.441406 1350.5 C 1965.011719 1151.039062 1968.519531 936.480469 1894.230469 764.800781 C 1832.078125 621.128906 1696.71875 500.96875 1500.320312 486.511719 C 1389.769531 478.371094 1303.679688 502.800781 1222.148438 546.421875 C 1189.289062 564 1148.859375 592.488281 1124.628906 616.238281 C 1111.28125 629.320312 1052.300781 685.238281 1052.339844 707.539062 C 1045.789062 712.199219 1051.921875 709.558594 1042.558594 711.589844 L 983.140625 712.609375 C 994.050781 712.910156 998.164062 709.808594 1003.679688 706.230469 L 1027.851562 705.71875 C 1246.769531 365.78125 1767.769531 386.179688 1922.148438 785.660156 C 1996.660156 978.46875 1980.410156 1211.421875 2009.121094 1426.179688 C 2022.929688 1529.441406 2059.679688 1615.011719 2086.96875 1710.5 C 2100.128906 1756.558594 2113.929688 1816.441406 2094.449219 1863.515625 C 2042.769531 1988.421875 1924.421875 1859.820312 1872.339844 1832.058594 C 1813.328125 1800.609375 1770.859375 1821.300781 1786.53125 1893.710938 C 1795.308594 1934.28125 1824.941406 2004.296875 1789.839844 2036.238281 C 1741.410156 2080.3125 1689.480469 2038.078125 1667.558594 2008.054688 C 1628.53125 1954.621094 1586.539062 1848.988281 1551.960938 1859.65625 C 1480.460938 1881.714844 1583.269531 2050.390625 1463.71875 2043.925781 C 1406.378906 2040.828125 1378.839844 2002.59375 1358.410156 1966.550781 C 1336.691406 1928.226562 1325.101562 1881.355469 1300.949219 1843.996094 C 1272.269531 1799.628906 1204.03125 1789.011719 1214.128906 1877.398438 C 1218.511719 1915.757812 1252.171875 2003.203125 1208.308594 2018.054688 C 1160.480469 2034.25 1113.210938 1980.097656 1094.121094 1952.808594 C 1047.761719 1886.5625 1016.390625 1773.96875 1000.5 1682.359375 C 991.066406 1627.988281 957.507812 1407.148438 963.355469 1359.078125 "/>
<path fill-rule="evenodd" fill="rgb(7.006836%, 12.988281%, 12.988281%)" fill-opacity="1" d="M 1487.511719 945.660156 C 1478.5 955.039062 1457.929688 960.871094 1456.660156 961.351562 C 1455.628906 961.75 1450.75 964.320312 1447.539062 965.378906 C 1445.328125 932.429688 1382.050781 810.679688 1359.210938 765.96875 C 1350.558594 749.03125 1354.898438 751.761719 1335.871094 751.109375 C 1335.429688 769.179688 1415.648438 925.121094 1431.621094 968.019531 C 1393.769531 974.589844 1319.988281 982.078125 1301.449219 936.558594 C 1300.710938 934.75 1298.191406 926.339844 1296.351562 920.898438 C 1279.070312 919.25 1300.699219 923.761719 1276.359375 926.148438 C 1267.941406 886.371094 1274.148438 907.171875 1264.589844 896.730469 C 1255.230469 886.5 1260.449219 897.839844 1255.929688 879.101562 C 1247.921875 845.910156 1240.46875 821.871094 1254.410156 787.710938 C 1262.730469 767.300781 1259.640625 769.839844 1280.738281 762.988281 C 1323.929688 748.960938 1345.011719 743.78125 1391.609375 747.128906 C 1390.539062 770.421875 1422.800781 828.449219 1433.101562 849.859375 L 1467.171875 926.5 C 1474.488281 942.148438 1472.910156 943.96875 1487.511719 945.660156 "/>
<path fill-rule="evenodd" fill="rgb(7.006836%, 12.988281%, 12.988281%)" fill-opacity="1" d="M 1051.320312 938.289062 C 1059.941406 920.511719 1029.898438 872.550781 1016.941406 842.808594 L 986.328125 775.921875 C 978.105469 757.75 981.394531 758.910156 965.617188 756.460938 C 964.835938 757.550781 964.085938 758.089844 963.929688 760.109375 C 963.785156 762.03125 962.675781 762.761719 962.550781 763.648438 C 962.429688 764.460938 961.785156 766.058594 961.734375 767.039062 L 966.128906 781.980469 L 1022.710938 902.628906 C 1030.429688 919.410156 1034.058594 943.398438 1051.320312 938.289062 Z M 1094.191406 921.730469 C 1094.359375 899.660156 1052.679688 820.058594 1040.101562 790.390625 C 1031.78125 770.769531 1032.628906 756.410156 1014.589844 749.261719 C 999.800781 768.039062 1032.519531 822.980469 1041.570312 842.03125 L 1071.320312 910.46875 C 1081.71875 933.46875 1073.609375 925.03125 1092.050781 925.671875 C 1053.039062 959.738281 994.738281 936.558594 969.699219 938.160156 C 965.832031 932.410156 968.789062 935.761719 958.878906 929.589844 C 949.5625 923.789062 945.5 918.601562 937.601562 909.570312 C 925.457031 895.691406 919.21875 837.738281 918.992188 824.558594 C 918.621094 803.148438 922.105469 785.199219 920.820312 772.121094 C 950.160156 766.679688 945.484375 753.210938 977.867188 752.378906 C 1008.980469 751.570312 1004.058594 746.289062 1043.160156 748.648438 C 1058.820312 764.238281 1044.121094 760.878906 1078.769531 761.871094 C 1056.398438 750.398438 1064.121094 759.019531 1059.289062 747.679688 C 1089.839844 745.761719 1094.941406 751.351562 1115.539062 763.960938 C 1143.621094 781.140625 1136.460938 783.160156 1136.839844 816.371094 C 1137.109375 840.28125 1131.671875 858.890625 1126.820312 881.261719 C 1122.761719 899.980469 1106.949219 914.839844 1094.191406 921.730469 "/>
<path fill-rule="evenodd" fill="rgb(18.992615%, 3.999329%, 3.999329%)" fill-opacity="1" d="M 1216.230469 822.929688 C 1217.171875 859.929688 1242.71875 927.519531 1264.25 954.589844 C 1294.058594 992.058594 1350.640625 1001.578125 1398.230469 1001.570312 C 1486.460938 1001.558594 1531.828125 963.308594 1554.121094 887.570312 C 1563.390625 856.058594 1555.980469 835.25 1570.441406 814.410156 C 1581.800781 814.921875 1579.511719 818.308594 1586.5 810.289062 C 1597.769531 803.238281 1596.578125 806.53125 1598.160156 788.058594 C 1599.039062 777.769531 1598.429688 766.128906 1596.871094 755.898438 C 1514.789062 702.929688 1349.480469 714.75 1256.878906 730.53125 C 1176.191406 744.269531 1158.539062 731.621094 1083.058594 723.199219 C 1030.511719 717.339844 998.492188 717.71875 946.386719 726.148438 L 912.140625 736.441406 C 896.03125 735.339844 889.996094 739.628906 890.070312 755.261719 C 884.195312 761.800781 888.472656 753.46875 885.28125 764.210938 C 876.589844 793.488281 897.359375 800.910156 898.792969 824.371094 C 900.613281 854.210938 896.472656 878.71875 907.574219 906.921875 C 922.742188 945.429688 939.890625 960.859375 976.988281 971.5 C 1010.179688 981.011719 1063.058594 978.488281 1093.109375 959.679688 C 1115.289062 945.808594 1123.320312 938.96875 1134.871094 912.679688 C 1142.988281 894.210938 1150.519531 868.460938 1159.300781 846.589844 C 1172.289062 814.269531 1182.011719 819.539062 1216.230469 822.929688 Z M 990.085938 987.21875 C 982.550781 979.238281 1000.070312 984.710938 979.242188 980.53125 C 969.394531 978.378906 971.253906 975.769531 957.457031 970.488281 C 957.085938 971.511719 956.984375 972.058594 956.859375 973.691406 L 949.46875 998.109375 C 951.824219 950.71875 927.847656 987.859375 900.183594 922.851562 C 882.351562 880.949219 892.132812 841.820312 882.0625 814.179688 C 878.683594 804.898438 868.46875 799.78125 871.976562 763.71875 C 876.988281 712.160156 923.738281 711.878906 1003.679688 706.230469 C 998.164062 709.808594 994.050781 712.910156 983.140625 712.609375 L 1042.558594 711.589844 C 1051.921875 709.558594 1045.789062 712.199219 1052.339844 707.539062 C 1105.359375 710.441406 1174.089844 730.191406 1221.308594 723.828125 C 1335.769531 708.429688 1433.609375 686.648438 1563.140625 724.921875 C 1591.109375 733.191406 1608.199219 738.808594 1610.898438 771.410156 C 1615.929688 832.300781 1587.378906 824.671875 1574.410156 832.628906 C 1566.210938 982.351562 1473.449219 1033.648438 1343.878906 1009.71875 C 1177.328125 978.960938 1239.96875 802.230469 1181.339844 835.511719 C 1155.53125 850.171875 1163.371094 1017.171875 990.085938 987.21875 "/>
<path fill-rule="evenodd" fill="rgb(50.976562%, 11.009216%, 10.009766%)" fill-opacity="1" d="M 1586.5 810.289062 L 1592.179688 760.859375 C 1567.160156 739.941406 1511.910156 731.070312 1470.078125 729.488281 L 1481.519531 743.148438 C 1482.148438 743.871094 1483.269531 744.96875 1484.058594 745.949219 C 1418.398438 735.859375 1306.808594 718.878906 1250.808594 771.21875 C 1246.121094 775.601562 1248.378906 774.058594 1243.308594 777.820312 C 1245.070312 767.191406 1245.800781 764.171875 1252.800781 756.648438 C 1262.398438 746.339844 1264.609375 750.828125 1269.929688 736.761719 C 1248.648438 738.148438 1228.089844 744.101562 1206.191406 745.160156 C 1192.769531 745.820312 1184.039062 744.179688 1171.660156 743.371094 C 1145.730469 741.660156 1161.128906 743.71875 1143.578125 749.441406 C 1143.351562 777.871094 1160.738281 775.710938 1156.921875 829.570312 C 1179.289062 818.210938 1155.191406 819.460938 1181.769531 813.679688 C 1196.300781 810.519531 1208.769531 812.160156 1216.230469 822.929688 C 1182.011719 819.539062 1172.289062 814.269531 1159.300781 846.589844 C 1150.519531 868.460938 1142.988281 894.210938 1134.871094 912.679688 C 1123.320312 938.96875 1115.289062 945.808594 1093.109375 959.679688 C 1063.058594 978.488281 1010.179688 981.011719 976.988281 971.5 C 939.890625 960.859375 922.742188 945.429688 907.574219 906.921875 C 896.472656 878.71875 900.613281 854.210938 898.792969 824.371094 C 897.359375 800.910156 876.589844 793.488281 885.28125 764.210938 C 888.472656 753.46875 884.195312 761.800781 890.070312 755.261719 C 891.65625 770.359375 888.308594 785.769531 896.238281 797.359375 L 908.824219 776.609375 C 906.011719 812.261719 907.363281 844.160156 913.949219 876.78125 C 938.351562 997.671875 1121.878906 975.621094 1143.371094 863.808594 C 1148.730469 835.941406 1155.980469 796.640625 1142.289062 774.089844 C 1113.421875 726.519531 1030.128906 734.820312 969.71875 742.230469 C 969.515625 742.039062 969.335938 741.601562 969.28125 741.511719 C 969.195312 741.359375 968.742188 740.5 968.621094 740.289062 C 968.429688 739.960938 967.800781 738.710938 967.574219 738.328125 C 967.160156 737.628906 964.160156 734.210938 963.828125 732.300781 C 963.472656 730.238281 962.347656 729.738281 961.535156 728.511719 C 940.265625 731.589844 932.566406 737.710938 912.140625 736.441406 L 946.386719 726.148438 C 998.492188 717.71875 1030.511719 717.339844 1083.058594 723.199219 C 1158.539062 731.621094 1176.191406 744.269531 1256.878906 730.53125 C 1349.480469 714.75 1514.789062 702.929688 1596.871094 755.898438 C 1598.429688 766.128906 1599.039062 777.769531 1598.160156 788.058594 C 1596.578125 806.53125 1597.769531 803.238281 1586.5 810.289062 "/>
<path fill-rule="evenodd" fill="rgb(4.998779%, 4.998779%, 4.998779%)" fill-opacity="1" d="M 824.421875 1026.128906 C 783.554688 1009.839844 741.738281 1089.941406 786.425781 1113.96875 C 836.933594 1141.121094 865.09375 1042.339844 824.421875 1026.128906 Z M 975.25 1312.078125 L 960.753906 1312.230469 C 959.332031 1337.691406 968.066406 1335.730469 963.355469 1359.078125 L 956.828125 1330.699219 C 956.058594 1317.570312 956.816406 1308.851562 955.523438 1295.5 C 953.496094 1274.570312 952.414062 1245.921875 951.433594 1223.78125 L 931.25 1215.929688 L 890.796875 1191.339844 C 864.621094 1180.058594 828.792969 1150.429688 819.871094 1133.761719 C 732.390625 1140.449219 740.285156 1057.359375 771.449219 1026.238281 C 751.167969 1014.25 723.878906 1006.988281 735.152344 974.429688 C 756.757812 941.628906 805.695312 967.621094 830.9375 979.089844 C 842.03125 967.070312 851.269531 932.039062 883.683594 951.328125 C 903.378906 963.058594 899.625 998.988281 900.300781 1024.710938 C 914.886719 1035.238281 922.445312 1049.609375 948.820312 1049.78125 L 949.46875 998.109375 L 956.859375 973.691406 C 956.984375 972.058594 957.085938 971.511719 957.457031 970.488281 C 971.253906 975.769531 969.394531 978.378906 979.242188 980.53125 C 1000.070312 984.710938 982.550781 979.238281 990.085938 987.21875 L 968.921875 985.378906 Z M 916.105469 1189.691406 L 949.003906 1203.421875 L 952.976562 1196.078125 C 956.554688 1177.128906 952.679688 1205.351562 953.660156 1187.261719 L 948.597656 1069.410156 L 929.730469 1064.25 C 851.097656 1035.539062 903.074219 992.480469 871.746094 964.871094 C 845.492188 967.441406 858.15625 983.300781 845.023438 1001.988281 C 827.46875 1003.269531 801.863281 980.199219 776.851562 976.839844 C 733.40625 971 751.613281 1008.628906 786.363281 1010.921875 C 810.566406 1012.511719 825.261719 998.820312 845.117188 1018.449219 C 888.457031 1061.300781 835.773438 1126.46875 835.765625 1126.480469 C 848.046875 1145.558594 886.679688 1172.589844 911.671875 1182.730469 C 914.789062 1188.929688 911.234375 1186.769531 916.105469 1189.691406 "/>
<path fill-rule="evenodd" fill="rgb(91.014099%, 97.068787%, 96.09375%)" fill-opacity="1" d="M 929.730469 1064.25 C 927.117188 1083.25 923.058594 1102.671875 921.417969 1122.699219 C 920.515625 1133.679688 919.753906 1144.429688 919.515625 1155.398438 C 919.121094 1173.589844 924.042969 1179.511719 911.671875 1182.730469 C 886.679688 1172.589844 848.046875 1145.558594 835.765625 1126.480469 C 835.773438 1126.46875 888.457031 1061.300781 845.117188 1018.449219 C 825.261719 998.820312 810.566406 1012.511719 786.363281 1010.921875 C 751.613281 1008.628906 733.40625 971 776.851562 976.839844 C 801.863281 980.199219 827.46875 1003.269531 845.023438 1001.988281 C 858.15625 983.300781 845.492188 967.441406 871.746094 964.871094 C 903.074219 992.480469 851.097656 1035.539062 929.730469 1064.25 "/>
<path fill-rule="evenodd" fill="rgb(7.006836%, 12.988281%, 12.988281%)" fill-opacity="1" d="M 1492.128906 940.988281 C 1490.628906 919.929688 1463.441406 868.191406 1453.679688 846.238281 C 1444.019531 824.511719 1416.550781 773.261719 1411.960938 750.441406 C 1467.039062 747.871094 1480.449219 760.78125 1497.761719 764.421875 C 1534.421875 772.140625 1523.730469 767.300781 1531.671875 793.640625 C 1544.710938 836.898438 1530.488281 799.828125 1530.011719 865.441406 C 1529.859375 884.839844 1517.21875 908.25 1508.53125 921.789062 L 1492.128906 940.988281 "/>
<path fill-rule="evenodd" fill="rgb(42.993164%, 59.959412%, 64.0625%)" fill-opacity="1" d="M 2052.21875 1889.347656 C 2042.199219 1899.6875 2033.640625 1902.113281 2014.699219 1899.152344 C 2003.460938 1897.398438 1989.609375 1890.371094 1981.671875 1885.835938 C 1933.710938 1858.421875 1862.878906 1780.199219 1800.011719 1806.378906 C 1746.800781 1828.539062 1765.769531 1884.847656 1779.828125 1941.066406 C 1784.671875 1960.433594 1794.511719 1993.320312 1783.929688 2014.011719 C 1774.210938 2033.015625 1733.28125 2050.378906 1718.671875 2029.320312 L 1737.949219 2033.683594 C 1758.828125 1961.394531 1740.089844 1945.296875 1744.699219 1877.242188 C 1747.960938 1828.941406 1767.058594 1782.648438 1818.808594 1779.890625 C 1903.339844 1775.378906 1950.089844 1882.808594 2052.21875 1889.347656 "/>
<path fill-rule="evenodd" fill="rgb(7.006836%, 9.008789%, 9.008789%)" fill-opacity="1" d="M 1460.539062 1248.769531 C 1445.648438 1213.808594 1404.761719 1221.800781 1366.460938 1212.210938 C 1319.820312 1195.328125 1333.429688 1129.949219 1332.410156 1115.828125 C 1320.171875 1112.800781 1299.570312 1110.851562 1292.140625 1097.660156 C 1282.710938 1080.910156 1293.550781 1065.410156 1302.269531 1059.050781 C 1331.320312 1037.839844 1366.609375 1059.378906 1396.558594 1060.070312 C 1401.851562 1035.050781 1414.070312 1014.390625 1445.511719 1025.570312 C 1470.070312 1034.308594 1465.800781 1064.101562 1468.800781 1092.171875 C 1483.539062 1100.730469 1500.738281 1109.199219 1522.929688 1112.171875 C 1558.441406 1116.921875 1575.660156 1107.730469 1588.449219 1122.398438 C 1579.710938 1136.730469 1579.230469 1134.121094 1536.828125 1130.800781 C 1421.691406 1121.789062 1461.941406 1079.578125 1442.230469 1042.160156 C 1408.839844 1038.519531 1417.269531 1056.421875 1410.921875 1082.210938 C 1385.308594 1084.589844 1319.191406 1044.039062 1307.351562 1085.671875 C 1317.820312 1099.109375 1335.929688 1097.25 1352.109375 1107.261719 C 1356.808594 1148.140625 1333.289062 1178.511719 1377.050781 1196.5 C 1405.519531 1208.199219 1454.941406 1198.101562 1466.5 1228.410156 L 1495.480469 1255.660156 L 1532.941406 1270.671875 C 1542.789062 1273.871094 1552.679688 1277.078125 1565.578125 1277.660156 C 1582.839844 1278.429688 1589.898438 1272.601562 1598.191406 1285.648438 C 1591.941406 1297.261719 1593.058594 1294.480469 1576.089844 1295.03125 C 1555.621094 1295.140625 1564.710938 1295.089844 1547.699219 1290.539062 C 1523.269531 1284.011719 1532.050781 1295.980469 1523.769531 1281.589844 C 1513.289062 1284.390625 1495.558594 1276.230469 1488.050781 1265.910156 L 1463.660156 1251.121094 C 1462.859375 1250.558594 1461.558594 1249.578125 1460.539062 1248.769531 "/>
<path fill-rule="evenodd" fill="rgb(50.976562%, 11.009216%, 10.009766%)" fill-opacity="1" d="M 1570.441406 814.410156 C 1555.980469 835.25 1563.390625 856.058594 1554.121094 887.570312 C 1531.828125 963.308594 1486.460938 1001.558594 1398.230469 1001.570312 C 1350.640625 1001.578125 1294.058594 992.058594 1264.25 954.589844 C 1242.71875 927.519531 1217.171875 859.929688 1216.230469 822.929688 C 1240.039062 828.921875 1220.078125 825.46875 1228.949219 822.269531 C 1240.238281 771.101562 1196.660156 795.171875 1244.398438 777.808594 C 1193.371094 991.769531 1444.269531 1035.851562 1518.148438 928.359375 C 1546.148438 887.628906 1547.761719 833.421875 1540.289062 775.511719 C 1559.921875 791.699219 1548.609375 790.609375 1553.558594 821.539062 C 1568.761719 812.738281 1556.210938 818.839844 1570.441406 814.410156 "/>
<path fill-rule="evenodd" fill="rgb(12.988281%, 4.998779%, 3.999329%)" fill-opacity="1" d="M 1411.960938 750.441406 C 1409.070312 749.628906 1399.179688 748.050781 1391.609375 747.128906 C 1345.011719 743.78125 1323.929688 748.960938 1280.738281 762.988281 C 1259.640625 769.839844 1262.730469 767.300781 1254.410156 787.710938 C 1240.46875 821.871094 1247.921875 845.910156 1255.929688 879.101562 C 1260.449219 897.839844 1255.230469 886.5 1264.589844 896.730469 C 1274.148438 907.171875 1267.941406 886.371094 1276.359375 926.148438 C 1300.699219 923.761719 1279.070312 919.25 1296.351562 920.898438 C 1298.191406 926.339844 1300.710938 934.75 1301.449219 936.558594 C 1319.988281 982.078125 1393.769531 974.589844 1431.621094 968.019531 L 1447.539062 965.378906 C 1450.75 964.320312 1455.628906 961.75 1456.660156 961.351562 C 1457.929688 960.871094 1478.5 955.039062 1487.511719 945.660156 L 1492.128906 940.988281 L 1508.53125 921.789062 C 1517.21875 908.25 1529.859375 884.839844 1530.011719 865.441406 C 1530.488281 799.828125 1544.710938 836.898438 1531.671875 793.640625 C 1523.730469 767.300781 1534.421875 772.140625 1497.761719 764.421875 C 1480.449219 760.78125 1467.039062 747.871094 1411.960938 750.441406 Z M 1484.058594 745.949219 C 1496.730469 746.980469 1508.078125 749.148438 1519.640625 755.828125 C 1533.808594 764.019531 1532.289062 769.910156 1540.289062 775.511719 C 1547.761719 833.421875 1546.148438 887.628906 1518.148438 928.359375 C 1444.269531 1035.851562 1193.371094 991.769531 1244.398438 777.808594 L 1243.308594 777.820312 C 1248.378906 774.058594 1246.121094 775.601562 1250.808594 771.21875 C 1306.808594 718.878906 1418.398438 735.859375 1484.058594 745.949219 "/>
<path fill-rule="evenodd" fill="rgb(5.999756%, 3.999329%, 2.999878%)" fill-opacity="1" d="M 1092.050781 925.671875 L 1094.191406 921.730469 C 1106.949219 914.839844 1122.761719 899.980469 1126.820312 881.261719 C 1131.671875 858.890625 1137.109375 840.28125 1136.839844 816.371094 C 1136.460938 783.160156 1143.621094 781.140625 1115.539062 763.960938 C 1094.941406 751.351562 1089.839844 745.761719 1059.289062 747.679688 C 1064.121094 759.019531 1056.398438 750.398438 1078.769531 761.871094 C 1044.121094 760.878906 1058.820312 764.238281 1043.160156 748.648438 C 1004.058594 746.289062 1008.980469 751.570312 977.867188 752.378906 C 945.484375 753.210938 950.160156 766.679688 920.820312 772.121094 C 922.105469 785.199219 918.621094 803.148438 918.992188 824.558594 C 919.21875 837.738281 925.457031 895.691406 937.601562 909.570312 C 945.5 918.601562 949.5625 923.789062 958.878906 929.589844 C 968.789062 935.761719 965.832031 932.410156 969.699219 938.160156 C 994.738281 936.558594 1053.039062 959.738281 1092.050781 925.671875 Z M 908.824219 776.609375 C 917.761719 762.421875 911.882812 762 934.183594 752.550781 C 946.15625 747.46875 956.59375 745.640625 969.71875 742.230469 C 1030.128906 734.820312 1113.421875 726.519531 1142.289062 774.089844 C 1155.980469 796.640625 1148.730469 835.941406 1143.371094 863.808594 C 1121.878906 975.621094 938.351562 997.671875 913.949219 876.78125 C 907.363281 844.160156 906.011719 812.261719 908.824219 776.609375 "/>
<path fill-rule="evenodd" fill="rgb(42.993164%, 59.959412%, 64.0625%)" fill-opacity="1" d="M 1402.960938 1995.839844 C 1430 2000.203125 1455.410156 1957.144531 1465.71875 1928.757812 C 1482.300781 1883.109375 1484.308594 1877.578125 1524.449219 1855.363281 C 1513.980469 1878.378906 1506.398438 1881.078125 1505.609375 1918.152344 C 1505.078125 1943.210938 1509.960938 1972.445312 1507.488281 1995.0625 C 1501.488281 2049.855469 1422.289062 2026.664062 1402.960938 1995.839844 "/>
<path fill-rule="evenodd" fill="rgb(42.993164%, 59.959412%, 64.0625%)" fill-opacity="1" d="M 1135.03125 1975.144531 C 1148.191406 1971.859375 1143.371094 1975.511719 1148.589844 1958.226562 C 1163.199219 1909.894531 1155.011719 1830.820312 1201.941406 1816.28125 C 1180.320312 1900.875 1230.328125 1970.785156 1207.710938 1997.035156 C 1195.328125 2011.394531 1167.410156 1998.554688 1152.25 1988.875 L 1137.53125 1977.449219 C 1136.941406 1976.933594 1135.828125 1975.941406 1135.03125 1975.144531 "/>
<path fill-rule="evenodd" fill="rgb(65.039062%, 11.009216%, 5.999756%)" fill-opacity="1" d="M 1243.308594 777.820312 L 1244.398438 777.808594 C 1196.660156 795.171875 1240.238281 771.101562 1228.949219 822.269531 C 1220.078125 825.46875 1240.039062 828.921875 1216.230469 822.929688 C 1208.769531 812.160156 1196.300781 810.519531 1181.769531 813.679688 C 1155.191406 819.460938 1179.289062 818.210938 1156.921875 829.570312 C 1160.738281 775.710938 1143.351562 777.871094 1143.578125 749.441406 C 1161.128906 743.71875 1145.730469 741.660156 1171.660156 743.371094 C 1184.039062 744.179688 1192.769531 745.820312 1206.191406 745.160156 C 1228.089844 744.101562 1248.648438 738.148438 1269.929688 736.761719 C 1264.609375 750.828125 1262.398438 746.339844 1252.800781 756.648438 C 1245.800781 764.171875 1245.070312 767.191406 1243.308594 777.820312 "/>
<path fill-rule="evenodd" fill="rgb(91.014099%, 97.068787%, 96.09375%)" fill-opacity="1" d="M 824.421875 1026.128906 C 865.09375 1042.339844 836.933594 1141.121094 786.425781 1113.96875 C 741.738281 1089.941406 783.554688 1009.839844 824.421875 1026.128906 "/>
<path fill-rule="evenodd" fill="rgb(21.99707%, 29.00238%, 34.008789%)" fill-opacity="1" d="M 1447.539062 965.378906 L 1431.621094 968.019531 C 1415.648438 925.121094 1335.429688 769.179688 1335.871094 751.109375 C 1354.898438 751.761719 1350.558594 749.03125 1359.210938 765.96875 C 1382.050781 810.679688 1445.328125 932.429688 1447.539062 965.378906 "/>
<path fill-rule="evenodd" fill="rgb(21.99707%, 29.00238%, 34.008789%)" fill-opacity="1" d="M 1411.960938 750.441406 C 1416.550781 773.261719 1444.019531 824.511719 1453.679688 846.238281 C 1463.441406 868.191406 1490.628906 919.929688 1492.128906 940.988281 L 1487.511719 945.660156 C 1472.910156 943.96875 1474.488281 942.148438 1467.171875 926.5 L 1433.101562 849.859375 C 1422.800781 828.449219 1390.539062 770.421875 1391.609375 747.128906 C 1399.179688 748.050781 1409.070312 749.628906 1411.960938 750.441406 "/>
<path fill-rule="evenodd" fill="rgb(65.039062%, 12.988281%, 5.999756%)" fill-opacity="1" d="M 1586.5 810.289062 C 1579.511719 818.308594 1581.800781 814.921875 1570.441406 814.410156 C 1556.210938 818.839844 1568.761719 812.738281 1553.558594 821.539062 C 1548.609375 790.609375 1559.921875 791.699219 1540.289062 775.511719 C 1532.289062 769.910156 1533.808594 764.019531 1519.640625 755.828125 C 1508.078125 749.148438 1496.730469 746.980469 1484.058594 745.949219 C 1483.269531 744.96875 1482.148438 743.871094 1481.519531 743.148438 L 1470.078125 729.488281 C 1511.910156 731.070312 1567.160156 739.941406 1592.179688 760.859375 L 1586.5 810.289062 "/>
<path fill-rule="evenodd" fill="rgb(46.99707%, 64.0625%, 65.039062%)" fill-opacity="1" d="M 1460.539062 1248.769531 C 1461.558594 1249.578125 1462.859375 1250.558594 1463.660156 1251.121094 L 1488.050781 1265.910156 C 1495.558594 1276.230469 1513.289062 1284.390625 1523.769531 1281.589844 C 1532.050781 1295.980469 1523.269531 1284.011719 1547.699219 1290.539062 C 1564.710938 1295.089844 1555.621094 1295.140625 1576.089844 1295.03125 C 1540.46875 1310.058594 1489.019531 1300.179688 1453.648438 1279.480469 C 1428.128906 1264.550781 1426.75 1239.511719 1395.238281 1227.179688 C 1368.328125 1216.648438 1378.289062 1229.671875 1366.460938 1212.210938 C 1404.761719 1221.800781 1445.648438 1213.808594 1460.539062 1248.769531 "/>
<path fill-rule="evenodd" fill="rgb(21.99707%, 29.00238%, 34.008789%)" fill-opacity="1" d="M 1051.320312 938.289062 C 1034.058594 943.398438 1030.429688 919.410156 1022.710938 902.628906 L 966.128906 781.980469 L 961.734375 767.039062 C 961.785156 766.058594 962.429688 764.460938 962.550781 763.648438 C 962.675781 762.761719 963.785156 762.03125 963.929688 760.109375 C 964.085938 758.089844 964.835938 757.550781 965.617188 756.460938 C 981.394531 758.910156 978.105469 757.75 986.328125 775.921875 L 1016.941406 842.808594 C 1029.898438 872.550781 1059.941406 920.511719 1051.320312 938.289062 "/>
<path fill-rule="evenodd" fill="rgb(42.993164%, 59.959412%, 64.0625%)" fill-opacity="1" d="M 953.660156 1187.261719 C 952.679688 1205.351562 956.554688 1177.128906 952.976562 1196.078125 L 949.003906 1203.421875 L 916.105469 1189.691406 C 911.234375 1186.769531 914.789062 1188.929688 911.671875 1182.730469 C 924.042969 1179.511719 919.121094 1173.589844 919.515625 1155.398438 C 919.753906 1144.429688 920.515625 1133.679688 921.417969 1122.699219 C 923.058594 1102.671875 927.117188 1083.25 929.730469 1064.25 L 948.597656 1069.410156 L 953.660156 1187.261719 "/>
<path fill-rule="evenodd" fill="rgb(21.99707%, 29.00238%, 34.008789%)" fill-opacity="1" d="M 1094.191406 921.730469 L 1092.050781 925.671875 C 1073.609375 925.03125 1081.71875 933.46875 1071.320312 910.46875 L 1041.570312 842.03125 C 1032.519531 822.980469 999.800781 768.039062 1014.589844 749.261719 C 1032.628906 756.410156 1031.78125 770.769531 1040.101562 790.390625 C 1052.679688 820.058594 1094.359375 899.660156 1094.191406 921.730469 "/>
<path fill-rule="evenodd" fill="rgb(7.006836%, 9.008789%, 7.006836%)" fill-opacity="1" d="M 1251.878906 999.960938 C 1241.328125 1018.238281 1257.078125 994.570312 1222.191406 1019.871094 C 1180.179688 1050.351562 1120.371094 1025.351562 1123.050781 989.878906 C 1149.789062 985.328125 1136.238281 1017.410156 1181.910156 1016.160156 C 1194.410156 1015.808594 1209.78125 1009.988281 1214.160156 1003.679688 C 1223.460938 990.261719 1206.21875 992.328125 1214.578125 973.21875 C 1231.179688 973.269531 1222.050781 974.179688 1233.371094 984.96875 C 1244.789062 995.851562 1242.871094 985.761719 1251.878906 999.960938 "/>
<path fill-rule="evenodd" fill="rgb(59.959412%, 11.009216%, 7.006836%)" fill-opacity="1" d="M 969.71875 742.230469 C 956.59375 745.640625 946.15625 747.46875 934.183594 752.550781 C 911.882812 762 917.761719 762.421875 908.824219 776.609375 L 896.238281 797.359375 C 888.308594 785.769531 891.65625 770.359375 890.070312 755.261719 C 889.996094 739.628906 896.03125 735.339844 912.140625 736.441406 C 932.566406 737.710938 940.265625 731.589844 961.535156 728.511719 C 962.347656 729.738281 963.472656 730.238281 963.828125 732.300781 C 964.160156 734.210938 967.160156 737.628906 967.574219 738.328125 C 967.800781 738.710938 968.429688 739.960938 968.621094 740.289062 C 968.742188 740.5 969.195312 741.359375 969.28125 741.511719 C 969.335938 741.601562 969.515625 742.039062 969.71875 742.230469 "/>
</svg>
